<?xml version="1.0" encoding="UTF-8"?>
<svg version="1.1" xmlns="http://www.w3.org/2000/svg" width="782" height="177">
<path d="M0 0 C2.95485128 2.09219335 5.49415713 4.39273016 8 7 C9.0828125 8.11375 9.0828125 8.11375 10.1875 9.25 C15.93324349 17.96767978 18.70297639 26.44643796 17.44189453 36.90527344 C16.12386887 43.153152 12.74465692 48.9023466 9 54 C6.859375 55.1640625 6.859375 55.1640625 5 56 C4.68675781 56.64710937 4.37351562 57.29421875 4.05078125 57.9609375 C2.61864526 60.74002668 0.99156735 61.3217603 -1.8125 62.625 C-2.66457031 63.02976562 -3.51664062 63.43453125 -4.39453125 63.8515625 C-5.68423828 64.42003906 -5.68423828 64.42003906 -7 65 C-7.81210937 65.37640625 -8.62421875 65.7528125 -9.4609375 66.140625 C-12.38815828 67.13137665 -14.73122479 67.1992476 -17.8125 67.125 C-18.78832031 67.10695313 -19.76414062 67.08890625 -20.76953125 67.0703125 C-21.50558594 67.04710938 -22.24164063 67.02390625 -23 67 C-23 66.34 -23 65.68 -23 65 C-23.825 64.938125 -24.65 64.87625 -25.5 64.8125 C-29 64 -29 64 -37 59 C-37.33 69.89 -37.66 80.78 -38 92 C-41.114375 92.020625 -44.22875 92.04125 -47.4375 92.0625 C-48.91174438 92.07615601 -48.91174438 92.07615601 -50.41577148 92.09008789 C-51.18477783 92.09258545 -51.95378418 92.09508301 -52.74609375 92.09765625 C-53.53685303 92.10289307 -54.3276123 92.10812988 -55.14233398 92.11352539 C-57 92 -57 92 -58 91 C-58.09525367 88.07805335 -58.12552736 85.17979671 -58.11352539 82.25756836 C-58.11367142 81.3405867 -58.11381744 80.42360504 -58.1139679 79.47883606 C-58.1132684 76.43248164 -58.10547428 73.38618755 -58.09765625 70.33984375 C-58.0957922 68.23377007 -58.09436824 66.12769597 -58.09336853 64.0216217 C-58.08954231 58.46657117 -58.07971114 52.91154659 -58.06866455 47.35650635 C-58.05845267 41.6927526 -58.05387139 36.02899467 -58.04882812 30.36523438 C-58.03808896 19.24347631 -58.02049132 8.12174437 -58 -3 C-51.4 -3 -44.8 -3 -38 -3 C-38 -0.36 -38 2.28 -38 5 C-37.21625 4.2575 -36.4325 3.515 -35.625 2.75 C-25.01597084 -5.97077104 -11.93511786 -6.18456107 0 0 Z M-35 23 C-37.87644528 27.72342594 -37.83399283 32.63970066 -37 38 C-35.15971024 42.02110557 -32.61223566 44.22612688 -28.65625 46.125 C-22.12121051 48.384026 -16.65728756 48.66240344 -10.25 45.75 C-7.10790084 43.30614509 -4.78225729 40.56451459 -3 37 C-2.1763324 28.7902898 -2.1763324 28.7902898 -4.875 21.25 C-5.57625 20.5075 -6.2775 19.765 -7 19 C-7.66 19 -8.32 19 -9 19 C-9.33 18.01 -9.66 17.02 -10 16 C-13.16009533 14.94663489 -15.5553136 14.79967112 -18.875 14.75 C-19.90367187 14.72421875 -20.93234375 14.6984375 -21.9921875 14.671875 C-27.75524915 15.30057263 -31.23041024 18.82288703 -35 23 Z " fill="#FEFEFE" transform="translate(342,56)"/>
<path d="M0 0 C1.15459717 0.27513428 2.30919434 0.55026855 3.4987793 0.83374023 C5.79101882 1.38297118 8.08231111 1.93617307 10.37255859 2.49365234 C13.03215419 3.13685509 15.69537645 3.75581808 18.36328125 4.36328125 C19.68004723 4.67818708 20.99649188 4.9944419 22.3125 5.3125 C23.41207031 5.57160156 24.51164062 5.83070312 25.64453125 6.09765625 C29.17631968 7.52293338 31.08360765 9.33242998 33.5 12.25 C33.41985673 15.69616056 32.9443896 16.8056104 30.5 19.25 C21.18330326 19.86177181 11.23051967 16.01444883 2.30151367 13.61303711 C-10.38467029 9.60440638 -10.38467029 9.60440638 -23 11.4375 C-24.90441007 13.73866217 -25.28288385 15.28274595 -25.5 18.25 C-25.3367163 20.33901503 -25.3367163 20.33901503 -24.5 22.25 C-22.85842507 23.23371566 -22.85842507 23.23371566 -20.66015625 23.69140625 C-19.75410645 23.93004395 -18.84805664 24.16868164 -17.91455078 24.41455078 C-16.78774902 24.69024902 -15.66094727 24.96594727 -14.5 25.25 C-13.05550407 25.61705902 -11.61135586 25.98548803 -10.16748047 26.35498047 C-4.21431556 27.87102943 1.74365911 29.36812765 7.70776367 30.84057617 C10.28756095 31.47875044 12.86458437 32.12727415 15.44140625 32.77734375 C16.21666153 32.96602524 16.99191681 33.15470673 17.79066467 33.34910583 C30.2663347 36.52239267 40.62060961 42.06295394 47.5 53.25 C51.43030772 60.58657442 51.7273705 69.09977618 50.5 77.25 C46.82435861 89.04436577 39.0109167 96.30586118 28.40625 102.0234375 C14.22487976 108.00858569 -1.02260345 105.53139 -15.50415039 102.10668945 C-17.824419 101.55969012 -20.15017388 101.04462374 -22.47851562 100.53320312 C-47.83910947 94.82387051 -47.83910947 94.82387051 -54.5 85.25 C-58.08609965 78.69867766 -59.8692155 72.53970306 -57.95703125 65.15234375 C-56.16172735 59.84578249 -53.65621583 55.98695164 -49.25 52.4375 C-45.35122876 50.75393969 -42.74125219 50.83955624 -38.5 51.25 C-36.4375 52.4375 -36.4375 52.4375 -35.5 54.25 C-35.3125 56.5625 -35.3125 56.5625 -36.5 59.25 C-38.47567452 60.96760997 -40.51988803 62.45095993 -42.6875 63.91796875 C-44.63264811 65.13538716 -44.63264811 65.13538716 -45.5 67.25 C-46.02601436 71.63920179 -46.06627431 75.1646409 -44 79.125 C-38.96229198 83.40705182 -32.0365799 84.76804498 -25.703125 86.2578125 C-24.98823914 86.42876434 -24.27335327 86.59971619 -23.5368042 86.77584839 C-22.03494161 87.13305179 -20.53242712 87.48752459 -19.02929688 87.83935547 C-16.76697116 88.37101171 -14.50855483 88.91741964 -12.25 89.46484375 C0.95093573 92.61177649 14.20968543 95.74499385 26.85546875 88.9921875 C32.59991817 85.04759371 36.30374155 79.83877534 38.5 73.25 C39.01206332 67.31006554 38.1064473 63.56413163 35.47265625 58.23046875 C34.5 56.25 34.5 56.25 33.5 53.25 C31.65122963 52.12811388 31.65122963 52.12811388 29.5 51.25 C28.90050034 50.92548355 28.30100067 50.6009671 27.68333435 50.26661682 C22.67859667 47.60696468 17.78774367 46.06639399 12.28515625 44.77734375 C11.4299791 44.56815811 10.57480194 44.35897247 9.69371033 44.14344788 C6.98541389 43.48238345 4.27426038 42.83419332 1.5625 42.1875 C-1.14513846 41.53519978 -3.85203839 40.88006826 -6.55799866 40.22084045 C-8.23321497 39.81339429 -9.90945557 39.41012632 -11.5868988 39.01194763 C-28.77486522 34.8595052 -28.77486522 34.8595052 -34.5 28.25 C-37.28594123 23.39707011 -38.44296265 18.80182504 -37.5 13.25 C-35.59289475 7.43171281 -32.62022972 3.69630846 -27.5 0.25 C-18.02141032 -4.5375565 -9.93170399 -2.39607798 0 0 Z " fill="#FFFFFF" transform="translate(85.5,42.75)"/>
<path d="M0 0 C2.4422198 0.55338046 4.88893852 1.08146026 7.33740234 1.60644531 C32.81038605 7.17229532 32.81038605 7.17229532 40.06787109 17.83300781 C43.49530097 24.44818715 44.1261102 32.06247045 41.95458984 39.20410156 C39.55981772 44.45305107 36.32570021 47.37987386 31.24755859 50.11425781 C28.03722073 50.97556797 25.87829376 50.65328719 22.68505859 49.80175781 C20.68505859 47.80175781 20.68505859 47.80175781 20.28271484 45.38378906 C20.68505859 42.80175781 20.68505859 42.80175781 22.61865234 41.06347656 C23.44494141 40.54398438 24.27123047 40.02449219 25.12255859 39.48925781 C29.30306284 36.47262926 29.30306284 36.47262926 30.99755859 31.80175781 C31.00433659 28.30430986 30.2475944 25.2712475 28.27832031 22.31567383 C21.83416739 16.19244485 9.14244386 15.04002057 0.81005859 13.11425781 C-0.46224609 12.80681641 -1.73455078 12.499375 -3.04541016 12.18261719 C-16.68750816 8.99853201 -30.00411845 6.42871138 -42.68994141 13.61425781 C-48.8270497 17.59041248 -51.95255368 21.83271403 -54.31494141 28.80175781 C-55.00132849 36.00882221 -53.69703986 41.69781134 -49.25244141 47.48925781 C-39.21248546 55.39305292 -26.84108268 57.44762046 -14.68994141 60.36425781 C-11.77062798 61.06774468 -8.85246517 61.77492657 -5.93692017 62.49388123 C-4.13380683 62.93836398 -2.32853567 63.37421973 -0.52084351 63.79969788 C6.53542182 65.53636528 14.00150079 67.58002061 18.12255859 73.98925781 C20.82772583 78.4904787 22.10059826 82.53503417 21.68505859 87.80175781 C19.72592629 94.22335813 16.44036642 99.04305069 10.74755859 102.67675781 C-0.15050548 106.59234287 -12.72933382 103.01166397 -23.47729492 100.23120117 C-25.89993227 99.60847667 -28.32970131 99.02326576 -30.76220703 98.44042969 C-32.32330582 98.04874265 -33.88387545 97.65493912 -35.44384766 97.25878906 C-36.16157852 97.08773148 -36.87930939 96.91667389 -37.61878967 96.74043274 C-42.43315636 95.4583083 -45.18392131 93.66962107 -48.31494141 89.80175781 C-48.75244141 87.11425781 -48.75244141 87.11425781 -48.31494141 84.80175781 C-46.31494141 82.80175781 -46.31494141 82.80175781 -42.71557617 82.55371094 C-38.25490446 82.67070229 -34.19436963 83.60445235 -29.90478516 84.77050781 C-29.13364883 84.97027222 -28.36251251 85.17003662 -27.56800842 85.37585449 C-25.12698722 86.00868953 -22.68948334 86.65378057 -20.25244141 87.30175781 C-17.81173314 87.94929759 -15.37043992 88.59371721 -12.92616272 89.22766113 C-11.41252959 89.6202579 -9.90083661 90.02044322 -8.3915863 90.42956543 C-3.94667187 91.58296179 0.05250473 92.12748144 4.68505859 91.80175781 C7.33204579 90.40490775 7.33204579 90.40490775 8.68505859 87.80175781 C8.9334424 84.20704777 8.9334424 84.20704777 7.68505859 80.80175781 C3.36931645 77.36562654 -1.78236173 76.51617091 -7.04150391 75.31347656 C-8.98040114 74.84968145 -10.91920012 74.38547545 -12.85791016 73.92089844 C-15.89089626 73.2043353 -18.92488018 72.49274743 -21.9609375 71.78930664 C-52.464504 64.68508826 -52.464504 64.68508826 -61.88134766 50.43066406 C-66.85438924 41.80222439 -67.83957236 32.82282902 -65.70166016 22.97753906 C-61.95319288 12.45871238 -54.11252051 5.65374364 -44.31494141 0.80175781 C-29.77564693 -5.77185937 -14.96663085 -3.39972288 0 0 Z " fill="#FFFFFF" transform="translate(94.31494140625,27.1982421875)"/>
<path d="M0 0 C6.03462083 5.42337931 9.26932444 11.62086237 9.94818115 19.76950073 C10.24173497 26.68957952 10.11051377 33.60829923 9.99609375 40.53125 C9.97599964 42.64907167 9.95775402 44.76691173 9.94140625 46.88476562 C9.897638 52.03821961 9.82877023 57.19077936 9.74609375 62.34375 C5.91798554 63.61978607 2.51134268 63.20658987 -1.44140625 62.90625 C-2.19099609 62.85404297 -2.94058594 62.80183594 -3.71289062 62.74804688 C-5.56027707 62.61861216 -7.40714996 62.48188482 -9.25390625 62.34375 C-9.58390625 61.35375 -9.91390625 60.36375 -10.25390625 59.34375 C-10.96933594 59.776875 -11.68476563 60.21 -12.421875 60.65625 C-20.2903853 65.05365809 -26.30429681 66.12323211 -35.25390625 65.34375 C-35.25390625 64.68375 -35.25390625 64.02375 -35.25390625 63.34375 C-35.95515625 63.240625 -36.65640625 63.1375 -37.37890625 63.03125 C-45.15565563 61.17159254 -49.53348078 56.56254441 -54.25390625 50.34375 C-55.95601858 45.23741301 -56.14355504 39.64637039 -54.19140625 34.59375 C-45.8425846 24.89834421 -35.06810926 20.28200702 -22.4375 18.9375 C-19.04319279 18.69089039 -15.65398358 18.48769488 -12.25390625 18.34375 C-13.06171783 15.84466962 -13.06171783 15.84466962 -14.25390625 13.34375 C-16.95981021 12.39007548 -16.95981021 12.39007548 -20.25390625 12.34375 C-21.49140625 12.240625 -22.72890625 12.1375 -24.00390625 12.03125 C-29.11178196 12.08064918 -33.78608527 13.95742846 -38.25390625 16.34375 C-38.58390625 17.00375 -38.91390625 17.66375 -39.25390625 18.34375 C-44.10215493 17.92818583 -46.13427487 15.96926755 -49.25390625 12.34375 C-49.94986373 11.02546877 -50.62319051 9.69446088 -51.25390625 8.34375 C-44.99935712 0.39382858 -39.17957467 -4.10150811 -29.19140625 -6.34375 C-18.79825675 -7.16860314 -8.59700259 -6.31738145 0 0 Z M-34.25390625 41.34375 C-33.93349228 43.94655568 -33.93349228 43.94655568 -33.25390625 46.34375 C-24.95096639 46.92938055 -16.89026824 47.08675557 -10.25390625 41.34375 C-9.42771834 38.75517533 -9.42771834 38.75517533 -9.25390625 36.34375 C-11.77540835 36.26202064 -14.29420542 36.20291627 -16.81640625 36.15625 C-17.52087891 36.13111328 -18.22535156 36.10597656 -18.95117188 36.08007812 C-24.89455694 35.99791151 -29.88525549 36.97509924 -34.25390625 41.34375 Z " fill="#FFFFFF" transform="translate(418.25390625,57.65625)"/>
<path d="M0 0 C2.76749516 2.92499488 4.921875 5.90369232 4.921875 10.03125 C5.581875 10.03125 6.241875 10.03125 6.921875 10.03125 C8.22679969 14.19069744 9.04207205 17.68161909 8.921875 22.03125 C6.81935639 22.70309618 4.71479737 23.36855968 2.609375 24.03125 C1.43761719 24.4025 0.26585937 24.77375 -0.94140625 25.15625 C-4.078125 26.03125 -4.078125 26.03125 -7.078125 26.03125 C-7.078125 26.69125 -7.078125 27.35125 -7.078125 28.03125 C-10.51376522 29.03771726 -13.95192129 30.0353045 -17.390625 31.03125 C-18.36708984 31.31742188 -19.34355469 31.60359375 -20.34960938 31.8984375 C-21.28740234 32.16914062 -22.22519531 32.43984375 -23.19140625 32.71875 C-24.05548096 32.97011719 -24.91955566 33.22148438 -25.80981445 33.48046875 C-28.078125 34.03125 -28.078125 34.03125 -31.078125 34.03125 C-31.078125 34.69125 -31.078125 35.35125 -31.078125 36.03125 C-32.728125 36.69125 -34.378125 37.35125 -36.078125 38.03125 C-28.50028347 40.50564723 -22.77912713 40.60781401 -15.2890625 37.6875 C-12.65558613 36.9058321 -10.81539965 36.69692638 -8.078125 37.03125 C-5.40234375 38.5625 -5.40234375 38.5625 -2.765625 40.53125 C-1.88261719 41.1809375 -0.99960937 41.830625 -0.08984375 42.5 C0.90595703 43.25796875 0.90595703 43.25796875 1.921875 44.03125 C1.5786495 46.88340559 1.33419299 48.5850006 -0.64453125 50.7265625 C-5.97243465 54.54263421 -11.30496799 58.03125 -18.078125 58.03125 C-18.078125 58.69125 -18.078125 59.35125 -18.078125 60.03125 C-23.358125 60.03125 -28.638125 60.03125 -34.078125 60.03125 C-34.078125 59.37125 -34.078125 58.71125 -34.078125 58.03125 C-34.64660156 57.93328125 -35.21507812 57.8353125 -35.80078125 57.734375 C-48.18499548 55.33609645 -53.72692513 48.75386327 -60.76171875 38.6015625 C-64.90439065 30.51290342 -64.79055515 20.53426137 -62.078125 12.03125 C-61.76488281 11.04511719 -61.76488281 11.04511719 -61.4453125 10.0390625 C-59.83105727 5.71582722 -57.4991652 3.05449483 -54.078125 0.03125 C-53.55476562 -0.43667969 -53.03140625 -0.90460937 -52.4921875 -1.38671875 C-48.3783701 -4.96875 -48.3783701 -4.96875 -46.078125 -4.96875 C-46.078125 -5.62875 -46.078125 -6.28875 -46.078125 -6.96875 C-29.13683874 -14.5728764 -13.79098854 -12.74477562 0 0 Z M-42.62890625 14.078125 C-44.84796426 17.06876922 -45.00310433 19.35523701 -45.078125 23.03125 C-41.448125 22.04125 -37.818125 21.05125 -34.078125 20.03125 C-34.078125 19.37125 -34.078125 18.71125 -34.078125 18.03125 C-33.170625 17.94875 -32.263125 17.86625 -31.328125 17.78125 C-25.70437847 17.0043613 -20.40890795 14.91321771 -15.078125 13.03125 C-15.81932488 9.98497448 -15.81932488 9.98497448 -17.953125 8.34375 C-27.26498807 4.43276751 -35.87683368 7.10635376 -42.62890625 14.078125 Z " fill="#FFFFFF" transform="translate(744.078125,62.96875)"/>
<path d="M0 0 C6.57749613 4.20711545 11.67082892 9.21472184 15.0703125 16.32421875 C15.0703125 16.98421875 15.0703125 17.64421875 15.0703125 18.32421875 C15.7303125 18.32421875 16.3903125 18.32421875 17.0703125 18.32421875 C19.95166563 27.68861641 20.70294357 37.43255589 16.0703125 46.32421875 C15.73 46.9790625 15.3896875 47.63390625 15.0390625 48.30859375 C10.2116309 56.72398127 3.58588367 63.60548413 -5.9296875 66.32421875 C-7.2496875 66.32421875 -8.5696875 66.32421875 -9.9296875 66.32421875 C-9.9296875 66.98421875 -9.9296875 67.64421875 -9.9296875 68.32421875 C-14.8796875 68.32421875 -19.8296875 68.32421875 -24.9296875 68.32421875 C-24.9296875 67.66421875 -24.9296875 67.00421875 -24.9296875 66.32421875 C-26.38375 66.23140625 -26.38375 66.23140625 -27.8671875 66.13671875 C-35.0557719 65.10144595 -41.33450639 60.80878975 -45.9296875 55.32421875 C-45.9296875 54.66421875 -45.9296875 54.00421875 -45.9296875 53.32421875 C-46.9196875 52.99421875 -47.9096875 52.66421875 -48.9296875 52.32421875 C-50.0625 50.3984375 -50.0625 50.3984375 -51.0546875 48.01171875 C-51.38726563 47.23183594 -51.71984375 46.45195313 -52.0625 45.6484375 C-55.52164803 36.37729751 -55.045837 25.8855497 -51.26171875 16.79296875 C-49.05804303 12.70873692 -46.25834465 9.52850849 -42.9296875 6.32421875 C-42.0015625 5.41671875 -41.0734375 4.50921875 -40.1171875 3.57421875 C-29.1165795 -4.19091631 -12.36831384 -6.14106175 0 0 Z M-31.8046875 21.32421875 C-35.41535645 26.42163374 -35.62186383 31.24634167 -34.9296875 37.32421875 C-32.40126012 42.20047155 -29.246089 46.55208492 -23.9296875 48.32421875 C-18.30949115 48.81892579 -13.49378565 49.09254767 -8.3671875 46.57421875 C-4.52487333 43.02746721 -2.21136882 40.22415099 -1.69140625 34.87109375 C-1.51987582 28.40710498 -1.77992892 24.40767301 -5.9296875 19.32421875 C-14.06507018 13.27667764 -24.84925832 13.31252096 -31.8046875 21.32421875 Z " fill="#FFFFFF" transform="translate(597.9296875,54.67578125)"/>
<path d="M0 0 C6.27 0 12.54 0 19 0 C19.03738281 2.97386719 19.07476562 5.94773438 19.11328125 9.01171875 C19.15951691 11.89777912 19.21074318 14.78371084 19.26245117 17.66967773 C19.29566727 19.67252764 19.32370952 21.6754704 19.34643555 23.6784668 C19.38004234 26.56078594 19.43236148 29.44225668 19.48828125 32.32421875 C19.49467117 33.21711105 19.5010611 34.11000336 19.50764465 35.029953 C19.6205869 39.82567461 19.89141201 43.10331928 23 47 C26.42176689 49.56632517 29.84640421 49.36435051 34 49 C37.01376932 47.72751962 38.52943335 46.85663815 40.11083984 43.9777832 C41.35194368 39.82134622 41.3568053 35.860446 41.4140625 31.54296875 C41.43342865 30.64000565 41.4527948 29.73704254 41.4727478 28.80671692 C41.53234082 25.93373953 41.57884769 23.06072163 41.625 20.1875 C41.66319845 18.23500895 41.70225127 16.28253441 41.7421875 14.33007812 C41.8396278 9.55347325 41.91935701 4.777036 42 0 C48.27 0 54.54 0 61 0 C61.69355374 3.46776871 62.12313834 5.89015398 62.08520508 9.28027344 C62.07801956 10.09171814 62.07083405 10.90316284 62.06343079 11.73919678 C62.04894394 12.60385559 62.03445709 13.4685144 62.01953125 14.359375 C62.00540695 15.26318909 61.99128265 16.16700317 61.97673035 17.09820557 C61.94368479 19.00791171 61.90734092 20.91756326 61.86791992 22.82714844 C61.81295612 25.72594428 61.78420038 28.6242762 61.75585938 31.5234375 C61.72037828 33.38544841 61.68331919 35.24743004 61.64453125 37.109375 C61.64016556 37.96593689 61.63579987 38.82249878 61.63130188 39.70501709 C61.39864761 48.06014902 58.4994101 55.22679198 52.83984375 61.43359375 C49.3290893 64.42258002 45.2178809 66.21525483 41 68 C40.17757812 68.36609375 39.35515625 68.7321875 38.5078125 69.109375 C30.39241738 71.99147794 23.08400143 69.68780064 15.53125 66.2890625 C13 65 13 65 10 63 C10 62.34 10 61.68 10 61 C9.34 61 8.68 61 8 61 C6.5625 59.4609375 6.5625 59.4609375 5 57.375 C4.2265625 56.36566406 4.2265625 56.36566406 3.4375 55.3359375 C-0.37843635 49.13504093 -0.26831484 43.18441124 -0.1953125 36.1328125 C-0.1924826 35.09808807 -0.18965271 34.06336365 -0.18673706 32.99728394 C-0.17558048 29.70640286 -0.15048397 26.41579822 -0.125 23.125 C-0.11496437 20.88802478 -0.10583953 18.65104527 -0.09765625 16.4140625 C-0.0756559 10.94260252 -0.041157 5.47134806 0 0 Z " fill="#FEFEFE" transform="translate(215,53)"/>
<path d="M0 0 C0.74451416 0.00016113 1.48902832 0.00032227 2.25610352 0.00048828 C9.23897292 0.1438427 16.69122098 1.25372098 21.8125 6.375 C21.8125 11.63002537 19.2773068 15.31270284 16.578125 19.6171875 C14.8125 21.375 14.8125 21.375 12.3515625 21.7265625 C9.93528174 21.39200055 8.15128493 20.86706959 5.9375 19.875 C2.01821612 18.28791356 -0.98730725 18.11248795 -5.1875 18.375 C-4.79892717 21.34195535 -4.79892717 21.34195535 -3.1875 24.375 C-0.62487805 25.85846502 2.07968879 26.52937748 4.9375 27.25 C5.69160156 27.46140625 6.44570313 27.6728125 7.22265625 27.890625 C9.0798446 28.40781669 10.9455006 28.8944284 12.8125 29.375 C12.8125 30.035 12.8125 30.695 12.8125 31.375 C13.72 31.6225 14.6275 31.87 15.5625 32.125 C18.93746123 33.42306201 20.55352121 34.59471841 22.8125 37.375 C22.8125 38.035 22.8125 38.695 22.8125 39.375 C23.4725 39.375 24.1325 39.375 24.8125 39.375 C27.6219237 45.65488827 26.94766916 51.96949251 24.8125 58.375 C24.1525 58.375 23.4925 58.375 22.8125 58.375 C22.565 59.4578125 22.565 59.4578125 22.3125 60.5625 C20.1240851 64.66577794 16.8312135 66.22706692 12.8125 68.375 C11.90757812 68.91511719 11.00265625 69.45523438 10.0703125 70.01171875 C6.00600639 71.71248953 2.7802511 71.71563498 -1.5625 71.5625 C-2.29855469 71.54896484 -3.03460938 71.53542969 -3.79296875 71.52148438 C-5.59146743 71.48644869 -7.38958422 71.43265288 -9.1875 71.375 C-9.1875 70.715 -9.1875 70.055 -9.1875 69.375 C-10.13625 69.313125 -11.085 69.25125 -12.0625 69.1875 C-17.13995851 68.45917603 -22.01616231 66.33968637 -26.1875 63.375 C-27.1484375 61.42578125 -27.1484375 61.42578125 -27.1875 59.375 C-26.078125 57.59375 -26.078125 57.59375 -24.4375 55.875 C-23.88320313 55.27558594 -23.32890625 54.67617187 -22.7578125 54.05859375 C-22.23960937 53.50300781 -21.72140625 52.94742188 -21.1875 52.375 C-20.1713154 51.05396002 -19.16134121 49.72755724 -18.1875 48.375 C-13.46519312 49.26747268 -8.86073337 50.50312158 -4.22265625 51.75390625 C-1.12606877 52.38757087 1.66113248 52.48302005 4.8125 52.375 C4.70076479 49.92593214 4.70076479 49.92593214 3.8125 47.375 C1.63358333 46.03197663 1.63358333 46.03197663 -1.125 45.3125 C-2.11757813 44.98765625 -3.11015625 44.6628125 -4.1328125 44.328125 C-5.64488281 43.85632813 -5.64488281 43.85632813 -7.1875 43.375 C-14.14211423 41.1162364 -19.27210565 38.8369923 -23.1875 32.375 C-23.1875 31.715 -23.1875 31.055 -23.1875 30.375 C-23.8475 30.375 -24.5075 30.375 -25.1875 30.375 C-26.16521193 27.4418642 -26.32169011 25.49321006 -26.3125 22.4375 C-26.31507813 21.58285156 -26.31765625 20.72820312 -26.3203125 19.84765625 C-26.19680254 17.54819148 -25.83170687 15.57859652 -25.1875 13.375 C-24.5275 13.375 -23.8675 13.375 -23.1875 13.375 C-23.001875 12.67375 -22.81625 11.9725 -22.625 11.25 C-20.21006278 6.42012556 -16.41575559 3.31809239 -11.46484375 1.22265625 C-7.61227386 0.2262228 -3.95425597 -0.00800007 0 0 Z " fill="#FFFFFF" transform="translate(462.1875,51.625)"/>
<path d="M0 0 C2.18278566 3.27417849 2.4993392 4.20388719 2 8 C0.46875 10.45703125 0.46875 10.45703125 -1.5 12.8125 C-2.1496875 13.60269531 -2.799375 14.39289063 -3.46875 15.20703125 C-3.9740625 15.79871094 -4.479375 16.39039062 -5 17 C-8.26109651 16.52276636 -11.28282856 15.91258026 -14.4375 14.9375 C-18.11191221 13.97054942 -21.2190629 13.84567604 -25 14 C-24.61142717 16.96695535 -24.61142717 16.96695535 -23 20 C-20.43737805 21.48346502 -17.73281121 22.15437748 -14.875 22.875 C-14.12089844 23.08640625 -13.36679688 23.2978125 -12.58984375 23.515625 C-10.7326554 24.03281669 -8.8669994 24.5194284 -7 25 C-7 25.66 -7 26.32 -7 27 C-6.278125 27.061875 -5.55625 27.12375 -4.8125 27.1875 C-1.11600926 28.2553751 0.53138868 30.10819816 3 33 C3 33.66 3 34.32 3 35 C3.66 35 4.32 35 5 35 C7.37051431 39.59287148 7.57328996 43.94788219 7 49 C4.22663654 56.4442914 -0.12174468 60.9804459 -7.1328125 64.3359375 C-9 65 -9 65 -12 65 C-12 65.66 -12 66.32 -12 67 C-16.09725269 68.04167441 -19.61495224 67.94409525 -23.8125 67.5625 C-24.97394531 67.46066406 -26.13539063 67.35882813 -27.33203125 67.25390625 C-28.65267578 67.12822266 -28.65267578 67.12822266 -30 67 C-30 66.34 -30 65.68 -30 65 C-30.56847656 64.89042969 -31.13695312 64.78085938 -31.72265625 64.66796875 C-36.82316758 63.62061834 -41.284442 62.20728247 -46 60 C-45.4520917 55.7170548 -43.97567196 53.14864359 -41.4375 49.6875 C-40.79683594 48.80449219 -40.15617188 47.92148438 -39.49609375 47.01171875 C-39.00238281 46.34785156 -38.50867188 45.68398437 -38 45 C-34.2300286 45.47124642 -30.7088885 46.05635545 -27.0625 47.125 C-22.77719408 48.26551195 -19.33816168 47.77467173 -15 47 C-15.11817527 45.04160661 -15.11817527 45.04160661 -16 43 C-18.1973926 41.77093094 -18.1973926 41.77093094 -20.9375 41 C-21.93007812 40.66613281 -22.92265625 40.33226562 -23.9453125 39.98828125 C-24.95335937 39.66214844 -25.96140625 39.33601563 -27 39 C-33.95425272 36.73144748 -39.08164984 34.46687058 -43 28 C-43 27.34 -43 26.68 -43 26 C-43.66 26 -44.32 26 -45 26 C-46.66769477 20.99691568 -46.66769477 15.00308432 -45 10 C-44.34 10 -43.68 10 -43 10 C-42.773125 9.278125 -42.54625 8.55625 -42.3125 7.8125 C-39.70341243 2.22159806 -35.56639734 -0.63132028 -30 -3 C-20.34464189 -6.03454112 -8.93306111 -4.48151891 0 0 Z " fill="#FEFEFE" transform="translate(202,56)"/>
<path d="M0 0 C1.13050781 -0.00257812 2.26101563 -0.00515625 3.42578125 -0.0078125 C6.6875 0.125 6.6875 0.125 11.6875 1.125 C11.6875 6.735 11.6875 12.345 11.6875 18.125 C13.95625 18.104375 16.225 18.08375 18.5625 18.0625 C25.4375 18 25.4375 18 27.6875 19.125 C27.6875 24.405 27.6875 29.685 27.6875 35.125 C24.68436252 36.62656874 21.89682478 36.21781204 18.5625 36.1875 C17.28117188 36.17847656 15.99984375 36.16945312 14.6796875 36.16015625 C13.19855469 36.14275391 13.19855469 36.14275391 11.6875 36.125 C11.80587128 40.05789545 11.93012793 43.99055666 12.05981445 47.9230957 C12.12437006 49.91803319 12.1842783 51.91311929 12.24414062 53.90820312 C12.28603516 55.16181641 12.32792969 56.41542969 12.37109375 57.70703125 C12.40775146 58.86436768 12.44440918 60.0217041 12.48217773 61.21411133 C12.57078509 64.1893446 12.57078509 64.1893446 13.6875 67.125 C18.08186211 67.98243651 22.21322076 68.21448558 26.6875 68.125 C27.41667151 69.84548318 28.12009217 71.57689495 28.8125 73.3125 C29.20695313 74.27542969 29.60140625 75.23835938 30.0078125 76.23046875 C30.82417748 79.70705756 30.46767538 81.067287 28.6875 84.125 C23.63842557 88.6432743 17.4576767 88.48832295 11.03125 88.265625 C10.2578125 88.21921875 9.484375 88.1728125 8.6875 88.125 C8.6875 87.465 8.6875 86.805 8.6875 86.125 C7.98625 86.0425 7.285 85.96 6.5625 85.875 C2.28201201 84.75835096 -1.06031976 83.07464872 -3.51171875 79.2578125 C-4.53675788 77.23821867 -5.45396112 75.22061536 -6.3125 73.125 C-6.65619629 72.40666992 -6.99989258 71.68833984 -7.35400391 70.94824219 C-8.54053134 67.45333562 -8.53817503 64.54451632 -8.5078125 60.85546875 C-8.5049826 60.17446609 -8.50215271 59.49346344 -8.49923706 58.79182434 C-8.48810525 56.63186545 -8.46301457 54.47233206 -8.4375 52.3125 C-8.42746111 50.84180289 -8.41833685 49.37109924 -8.41015625 47.90039062 C-8.38818913 44.30845714 -8.3537082 40.71677015 -8.3125 37.125 C-11.9425 36.465 -15.5725 35.805 -19.3125 35.125 C-19.3125 29.515 -19.3125 23.905 -19.3125 18.125 C-15.6825 17.795 -12.0525 17.465 -8.3125 17.125 C-8.3125 11.845 -8.3125 6.565 -8.3125 1.125 C-5.50346379 -0.2795181 -3.13135492 -0.00709254 0 0 Z " fill="#FFFFFF" transform="translate(509.3125,34.875)"/>
<path d="M0 0 C-0.33 2.64 -0.66 5.28 -1 8 C-1.66 8 -2.32 8 -3 8 C-3.185625 9.11375 -3.185625 9.11375 -3.375 10.25 C-3.95486701 12.80141485 -4.73708739 14.7267573 -6 17 C-6.969375 16.835 -7.93875 16.67 -8.9375 16.5 C-16.85871679 15.42999693 -23.23532992 15.19546308 -30 20 C-34.46425201 24.14300311 -35.86169219 27.5917009 -36.20532227 33.57519531 C-36.24687512 34.99271313 -36.28363719 36.41037693 -36.31640625 37.828125 C-36.33718735 38.57713074 -36.35796844 39.32613647 -36.37937927 40.09783936 C-36.44457088 42.48180288 -36.50361783 44.86587312 -36.5625 47.25 C-36.60571416 48.86980254 -36.64932937 50.48959443 -36.69335938 52.109375 C-36.80022096 56.07280832 -36.90157333 60.0363486 -37 64 C-40.51737321 65.17245774 -43.3575132 65.13266285 -47.0625 65.125 C-48.31160156 65.12757812 -49.56070313 65.13015625 -50.84765625 65.1328125 C-54 65 -54 65 -56 64 C-56 41.89 -56 19.78 -56 -3 C-49.73 -3 -43.46 -3 -37 -3 C-36.67 -0.03 -36.34 2.94 -36 6 C-35.46632813 5.52949219 -34.93265625 5.05898438 -34.3828125 4.57421875 C-24.29484429 -3.8556924 -11.86937538 -7.37826037 0 0 Z " fill="#FFFFFF" transform="translate(680,56)"/>
<path d="" fill="#FFFFFF" transform="translate(0,0)"/>
<path d="" fill="#FFFFFF" transform="translate(0,0)"/>
<path d="" fill="#FFFFFF" transform="translate(0,0)"/>
<path d="" fill="#FFFFFF" transform="translate(0,0)"/>
<path d="" fill="#FFFFFF" transform="translate(0,0)"/>
<path d="" fill="#FFFFFF" transform="translate(0,0)"/>
<path d="" fill="#FFFFFF" transform="translate(0,0)"/>
</svg>
