<?xml version="1.0" encoding="UTF-8"?>
<svg version="1.1" xmlns="http://www.w3.org/2000/svg" width="503" height="539">
<path d="M0 0 C1.18940186 0.1232666 1.18940186 0.1232666 2.40283203 0.24902344 C5.67672582 0.63533593 8.5847217 1.0906412 11.7277832 2.1394043 C14.94026971 3.20923632 18.09470521 3.94337696 21.41015625 4.625 C22.63154297 4.88023438 23.85292969 5.13546875 25.11132812 5.3984375 C27.66585639 5.9252519 30.22054459 6.45129136 32.77539062 6.9765625 C34.60553711 7.35941406 34.60553711 7.35941406 36.47265625 7.75 C37.58133057 7.97816406 38.69000488 8.20632812 39.83227539 8.44140625 C42.66891051 9.13696566 45.17024063 10.10511955 47.875 11.1875 C49.96418464 11.6968537 52.06471064 12.16090087 54.171875 12.58984375 C55.3784375 12.84056641 56.585 13.09128906 57.828125 13.34960938 C60.34360986 13.86331693 62.85923328 14.37634646 65.375 14.88867188 C71.27025697 16.11475989 76.93280257 17.45119481 82.60449219 19.46655273 C87.34034093 20.97031202 92.25410271 21.79921524 97.125 22.75 C99.23523671 23.16359615 101.34465081 23.58141676 103.453125 24.00390625 C104.37512695 24.18381104 105.29712891 24.36371582 106.24707031 24.54907227 C108.875 25.1875 108.875 25.1875 111.28686523 26.16723633 C114.3903148 27.39064126 117.43779853 28.03282481 120.70703125 28.6953125 C122.64545898 29.09169922 122.64545898 29.09169922 124.62304688 29.49609375 C125.97784415 29.76833085 127.33266213 30.04046499 128.6875 30.3125 C130.06193627 30.59201891 131.43628625 30.87196252 132.81054688 31.15234375 C136.16453946 31.83491066 139.51935046 32.51313466 142.875 33.1875 C142.875 33.8475 142.875 34.5075 142.875 35.1875 C143.968125 35.27 145.06125 35.3525 146.1875 35.4375 C156.0999342 36.7509851 164.32982119 40.46275051 170.875 48.1875 C172.12109375 50.94140625 172.12109375 50.94140625 172.875 53.1875 C173.535 53.1875 174.195 53.1875 174.875 53.1875 C177.38847737 59.98867407 177.17144187 66.29817438 174.875 73.1875 C174.215 73.1875 173.555 73.1875 172.875 73.1875 C172.565625 74.05375 172.565625 74.05375 172.25 74.9375 C170.33509388 78.07098274 168.05152523 79.40864587 164.875 81.1875 C163.555 81.1875 162.235 81.1875 160.875 81.1875 C160.875 81.8475 160.875 82.5075 160.875 83.1875 C156.8052509 83.44727122 153.76276767 83.28190352 149.9375 81.84375 C144.01820494 79.79133111 137.95574087 78.67334837 131.8125 77.5 C130.08483398 77.16258789 130.08483398 77.16258789 128.32226562 76.81835938 C125.50749687 76.26942107 122.69179351 75.72593415 119.875 75.1875 C119.875 74.5275 119.875 73.8675 119.875 73.1875 C118.8128125 73.07535156 117.750625 72.96320313 116.65625 72.84765625 C110.82811061 72.11913883 105.11509916 70.8506073 99.375 69.625 C98.26640625 69.39103516 97.1578125 69.15707031 96.015625 68.91601562 C93.30145073 68.3427633 90.58794824 67.76652176 87.875 67.1875 C87.875 66.5275 87.875 65.8675 87.875 65.1875 C86.26431641 65.01347656 86.26431641 65.01347656 84.62109375 64.8359375 C78.99935802 64.13090134 73.48063598 62.97004735 67.9375 61.8125 C66.90431641 61.60367188 65.87113281 61.39484375 64.80664062 61.1796875 C59.45870705 60.06878046 54.36331735 58.74027021 49.21313477 56.93261719 C44.50377274 55.43183689 39.64621269 54.50943779 34.8125 53.5 C33.75611328 53.27505859 32.69972656 53.05011719 31.61132812 52.81835938 C29.03349004 52.27013137 26.45475631 51.72661564 23.875 51.1875 C23.875 50.5275 23.875 49.8675 23.875 49.1875 C22.76640625 49.06503906 21.6578125 48.94257813 20.515625 48.81640625 C17.30223636 48.41649594 14.15516779 47.87076265 10.984375 47.21484375 C-5.24806287 43.87487331 -21.58511871 41.02508558 -37.125 48.1875 C-37.785 48.1875 -38.445 48.1875 -39.125 48.1875 C-39.455 49.1775 -39.785 50.1675 -40.125 51.1875 C-41.0325 51.88875 -41.94 52.59 -42.875 53.3125 C-48.11255221 57.47730055 -51.21754055 63.60841899 -52.125 70.1875 C-52.4361954 80.51106927 -50.1771801 87.47585392 -43.359375 95.18359375 C-36.40501521 101.5492971 -27.05064953 103.09810847 -18.125 105.1875 C-18.125 105.8475 -18.125 106.5075 -18.125 107.1875 C-16.89910156 107.29964844 -15.67320312 107.41179687 -14.41015625 107.52734375 C-8.37662876 108.19773569 -2.49225971 109.47397576 3.4375 110.75 C4.54158203 110.98396484 5.64566406 111.21792969 6.78320312 111.45898438 C9.48131255 112.03131062 12.17851875 112.60756002 14.875 113.1875 C14.875 113.8475 14.875 114.5075 14.875 115.1875 C16.12152344 115.29964844 17.36804688 115.41179687 18.65234375 115.52734375 C24.35353013 116.1608089 29.86124645 117.43251322 35.4375 118.75 C36.95053711 119.10094727 36.95053711 119.10094727 38.49414062 119.45898438 C40.95553217 120.03058715 43.41573347 120.6068354 45.875 121.1875 C45.875 121.8475 45.875 122.5075 45.875 123.1875 C47.12152344 123.29964844 48.36804688 123.41179687 49.65234375 123.52734375 C55.35353013 124.1608089 60.86124645 125.43251322 66.4375 126.75 C67.95053711 127.10094727 67.95053711 127.10094727 69.49414062 127.45898438 C71.95553217 128.03058715 74.41573347 128.6068354 76.875 129.1875 C76.875 129.8475 76.875 130.5075 76.875 131.1875 C78.12796875 131.30222656 79.3809375 131.41695312 80.671875 131.53515625 C86.25553103 132.15714143 91.65798872 133.35454955 97.125 134.625 C98.09179688 134.84220703 99.05859375 135.05941406 100.0546875 135.28320312 C107.24741424 136.93277475 107.24741424 136.93277475 110.31591797 138.17822266 C113.12368756 139.28557998 115.8562163 139.94776645 118.8046875 140.58984375 C119.93003906 140.84056641 121.05539062 141.09128906 122.21484375 141.34960938 C124.56334415 141.86472245 126.91230114 142.37775848 129.26171875 142.88867188 C135.14378723 144.20289403 140.40720317 145.6774692 145.875 148.1875 C148.36772094 148.94117524 150.86826257 149.66934322 153.375 150.375 C161.85544593 152.91032986 169.26718007 156.71983413 176.875 161.1875 C177.82342773 161.73688232 177.82342773 161.73688232 178.79101562 162.29736328 C186.65254018 166.87254573 186.65254018 166.87254573 189.875 169.1875 C189.875 169.8475 189.875 170.5075 189.875 171.1875 C190.58269531 171.41566406 191.29039062 171.64382813 192.01953125 171.87890625 C210.95847698 180.55817687 227.10976776 206.63885091 234.875 225.1875 C235.73591203 228.18954038 236.32828567 231.10601923 236.875 234.1875 C237.535 234.1875 238.195 234.1875 238.875 234.1875 C246.93569977 263.61296713 249.25480828 298.15906012 234.875 326.1875 C234.441875 327.13625 234.00875 328.085 233.5625 329.0625 C231.43269643 333.00658068 229.02740498 336.74134756 226.59375 340.50390625 C225.49557657 342.21855431 224.42934143 343.95436461 223.40625 345.71484375 C221.7455282 348.39657053 219.88020743 350.75395904 217.875 353.1875 C217.22402344 354.01507813 216.57304687 354.84265625 215.90234375 355.6953125 C197.20687572 379.10832854 197.20687572 379.10832854 186.1796875 383.18359375 C185.03886719 383.68052734 185.03886719 383.68052734 183.875 384.1875 C183.545 385.1775 183.215 386.1675 182.875 387.1875 C180.70561811 388.6209993 178.59022903 389.88982961 176.3125 391.125 C175.67497803 391.47836426 175.03745605 391.83172852 174.38061523 392.19580078 C172.55120074 393.20415414 170.71473362 394.1981298 168.875 395.1875 C168.06289063 395.62964844 167.25078125 396.07179688 166.4140625 396.52734375 C162.30797674 398.67776416 158.34484017 400.07003996 153.875 401.1875 C153.875 401.8475 153.875 402.5075 153.875 403.1875 C153.17415283 403.38907715 152.47330566 403.5906543 151.7512207 403.79833984 C148.56254429 404.71707971 145.37501793 405.63974926 142.1875 406.5625 C141.08470703 406.87960937 139.98191406 407.19671875 138.84570312 407.5234375 C137.2456543 407.9875 137.2456543 407.9875 135.61328125 408.4609375 C134.63399658 408.74372559 133.65471191 409.02651367 132.64575195 409.31787109 C129.87822509 410.14482923 129.87822509 410.14482923 127.28222656 411.2421875 C100.46592775 421.77288821 62.50508265 415.64817457 34.875 411.1875 C34.875 410.5275 34.875 409.8675 34.875 409.1875 C34.30467041 409.14286621 33.73434082 409.09823242 33.14672852 409.05224609 C25.93971079 408.41732338 18.91098082 407.19036803 11.8125 405.8125 C10.69294922 405.60367187 9.57339844 405.39484375 8.41992188 405.1796875 C3.64541676 404.26119033 -1.00086688 403.32543337 -5.5859375 401.69140625 C-11.46377705 399.60526655 -17.5668845 398.62115314 -23.6875 397.5 C-24.88697266 397.27505859 -26.08644531 397.05011719 -27.32226562 396.81835938 C-30.25551001 396.26910644 -33.18969892 395.72563321 -36.125 395.1875 C-36.125 394.5275 -36.125 393.8675 -36.125 393.1875 C-37.3625 393.07148438 -38.6 392.95546875 -39.875 392.8359375 C-45.70139134 392.18628119 -51.3921727 391.01941101 -57.125 389.8125 C-58.15367187 389.60367187 -59.18234375 389.39484375 -60.2421875 389.1796875 C-65.59074325 388.06370386 -70.69415531 386.72711283 -75.84667969 384.91943359 C-81.1550611 383.21406202 -86.67828581 382.22836255 -92.12890625 381.08203125 C-97.479847 379.9168472 -102.15496885 378.47454168 -107.125 376.1875 C-109.59711253 375.27238014 -112.07628901 374.3760934 -114.5625 373.5 C-115.79871094 373.06300781 -117.03492188 372.62601562 -118.30859375 372.17578125 C-119.23800781 371.84964844 -120.16742188 371.52351563 -121.125 371.1875 C-121.125 370.5275 -121.125 369.8675 -121.125 369.1875 C-122.3625 368.8471875 -122.3625 368.8471875 -123.625 368.5 C-138.06822247 363.08379157 -150.43518232 350.6184381 -159.125 338.1875 C-159.88103516 337.15689453 -159.88103516 337.15689453 -160.65234375 336.10546875 C-164.85207862 330.17454546 -167.47822512 323.92732317 -170.125 317.1875 C-170.68200996 315.95583574 -171.24350907 314.72617546 -171.8125 313.5 C-179.42652183 294.2836592 -177.13254912 270.4517075 -171.125 251.1875 C-170.465 251.1875 -169.805 251.1875 -169.125 251.1875 C-169.0425 250.5275 -168.96 249.8675 -168.875 249.1875 C-165.28051362 234.8095545 -152.13536262 222.24323102 -140.125 214.1875 C-134.825 211.1875 -134.825 211.1875 -131.125 211.1875 C-131.125 210.5275 -131.125 209.8675 -131.125 209.1875 C-121.59084373 206.08936024 -111.68134284 204.11720583 -102.125 208.1875 C-97.82035808 211.08581612 -94.01961236 213.84558146 -91.125 218.1875 C-91.125 219.1775 -91.125 220.1675 -91.125 221.1875 C-90.465 221.1875 -89.805 221.1875 -89.125 221.1875 C-89.125 224.8175 -89.125 228.4475 -89.125 232.1875 C-89.785 232.1875 -90.445 232.1875 -91.125 232.1875 C-91.49625 233.31478516 -91.49625 233.31478516 -91.875 234.46484375 C-94.25284522 239.64408786 -99.37629266 243.03410351 -104.5546875 245.20703125 C-105.36164063 245.48933594 -106.16859375 245.77164063 -107 246.0625 C-115.20935545 249.02556423 -122.00267218 255.22113417 -127.125 262.1875 C-128.36516669 264.8669645 -128.36516669 264.8669645 -129.125 267.1875 C-129.785 267.1875 -130.445 267.1875 -131.125 267.1875 C-133.37164406 279.80481354 -133.58549998 290.59940637 -131.125 303.1875 C-130.465 303.1875 -129.805 303.1875 -129.125 303.1875 C-128.56232422 304.39986328 -128.56232422 304.39986328 -127.98828125 305.63671875 C-124.17629834 313.72955663 -124.17629834 313.72955663 -118.125 320.1875 C-117.56296875 320.65285156 -117.0009375 321.11820312 -116.421875 321.59765625 C-105.31020552 330.42827163 -93.72601482 334.00218461 -80.125 337.1875 C-80.125 337.8475 -80.125 338.5075 -80.125 339.1875 C-79.53944336 339.23140869 -78.95388672 339.27531738 -78.35058594 339.32055664 C-71.55367654 339.90606069 -65.02638514 341.13387248 -58.375 342.625 C-57.37339844 342.84220703 -56.37179688 343.05941406 -55.33984375 343.28320312 C-51.57123645 344.11429334 -47.88654534 344.92870812 -44.22900391 346.17163086 C-40.9057276 347.25926282 -37.62130872 347.99798584 -34.1953125 348.6953125 C-32.90625 348.95957031 -31.6171875 349.22382813 -30.2890625 349.49609375 C-28.94272458 349.76830952 -27.5963702 350.04044394 -26.25 350.3125 C-24.88013926 350.5921097 -23.51034685 350.87205444 -22.140625 351.15234375 C-18.80274011 351.83402447 -15.46419916 352.51229195 -12.125 353.1875 C-12.125 353.8475 -12.125 354.5075 -12.125 355.1875 C-11.47813232 355.2299585 -10.83126465 355.27241699 -10.16479492 355.31616211 C-2.76879389 355.88478187 4.3222683 357.16716919 11.5625 358.75 C12.65755859 358.98396484 13.75261719 359.21792969 14.88085938 359.45898438 C17.54685989 360.02943863 20.21146071 360.60568224 22.875 361.1875 C22.875 361.8475 22.875 362.5075 22.875 363.1875 C23.44387939 363.23140869 24.01275879 363.27531738 24.59887695 363.32055664 C31.85453574 363.95559837 38.9202764 365.22111307 46.0625 366.625 C47.19880859 366.84220703 48.33511719 367.05941406 49.50585938 367.28320312 C58.68151379 369.06483165 58.68151379 369.06483165 62.8125 370.30859375 C79.11742728 374.9879415 102.94619577 373.76955905 118.875 368.1875 C121.92715112 367.27532221 124.99419824 366.41853877 128.0625 365.5625 C128.86880859 365.33304687 129.67511719 365.10359375 130.50585938 364.8671875 C131.28123047 364.650625 132.05660156 364.4340625 132.85546875 364.2109375 C133.55567139 364.01419434 134.25587402 363.81745117 134.97729492 363.61474609 C136.875 363.1875 136.875 363.1875 139.875 363.1875 C139.875 362.5275 139.875 361.8675 139.875 361.1875 C141.83149397 360.34985732 143.79025556 359.51750941 145.75 358.6875 C146.84054687 358.2234375 147.93109375 357.759375 149.0546875 357.28125 C151.875 356.1875 151.875 356.1875 153.875 356.1875 C153.875 355.5275 153.875 354.8675 153.875 354.1875 C155.45724899 353.10158387 157.09420412 352.0950854 158.75 351.125 C177.27732618 339.60480359 189.88109656 321.63735454 196.875 301.1875 C197.18308594 300.35089844 197.49117188 299.51429688 197.80859375 298.65234375 C203.2499887 283.47371573 201.04224867 266.82265114 198.875 251.1875 C198.215 251.1875 197.555 251.1875 196.875 251.1875 C192.875 239.1875 192.875 239.1875 191.8671875 235.8515625 C191.16871364 233.05014879 191.16871364 233.05014879 188.875 232.1875 C187.35685341 229.78339689 185.99152171 227.31038606 184.60546875 224.828125 C182.6568345 221.85458831 180.44355678 219.64000752 177.875 217.1875 C177.10800781 216.38570312 176.34101563 215.58390625 175.55078125 214.7578125 C161.88956401 200.62240424 145.88095021 193.00548017 126.99609375 188.29296875 C124.26273371 187.60397208 121.70642735 186.76232556 119.09375 185.70703125 C113.86827833 183.67779038 108.42595426 182.74493991 102.9375 181.6875 C96.53523247 180.44938214 90.39541057 179.10567378 84.24438477 176.93701172 C79.36722235 175.39421021 74.32345913 174.49977545 69.3125 173.5 C67.65637695 173.16258789 67.65637695 173.16258789 65.96679688 172.81835938 C63.27049741 172.26976165 60.57327912 171.72626055 57.875 171.1875 C57.875 170.5275 57.875 169.8675 57.875 169.1875 C56.92367187 169.04054688 56.92367187 169.04054688 55.953125 168.890625 C49.15303421 167.80110769 42.38554963 166.56115203 35.625 165.25 C34.36671387 165.01361816 34.36671387 165.01361816 33.08300781 164.77246094 C29.25333129 164.01801617 25.64327383 163.17958748 22.015625 161.7265625 C16.79906407 159.65366592 11.3569302 158.63549368 5.875 157.5 C4.81410156 157.27505859 3.75320312 157.05011719 2.66015625 156.81835938 C0.06621838 156.26919235 -2.52877249 155.72571892 -5.125 155.1875 C-5.125 154.5275 -5.125 153.8675 -5.125 153.1875 C-6.74921875 153.01927734 -6.74921875 153.01927734 -8.40625 152.84765625 C-13.89895122 152.1610686 -19.24059639 150.88630715 -24.625 149.625 C-25.63820312 149.39103516 -26.65140625 149.15707031 -27.6953125 148.91601562 C-30.17272479 148.34340618 -32.64922965 147.76715985 -35.125 147.1875 C-35.125 146.5275 -35.125 145.8675 -35.125 145.1875 C-36.0325 145.105 -36.94 145.0225 -37.875 144.9375 C-54.21644249 142.44862299 -69.79458719 132.51630069 -80.125 119.6875 C-93.49813159 100.58302629 -97.85249409 81.55280424 -94.125 58.4375 C-92.29385083 50.24645711 -88.39014257 43.32984088 -84.125 36.1875 C-83.465 36.1875 -82.805 36.1875 -82.125 36.1875 C-81.91875 35.506875 -81.7125 34.82625 -81.5 34.125 C-75.2745675 20.82521238 -59.0949417 11.67024808 -46.125 6.1875 C-42.28774836 4.94330023 -38.39419237 3.98705401 -34.47265625 3.046875 C-31.21707766 2.30068615 -31.21707766 2.30068615 -28.62890625 1.125 C-19.92930886 -2.13225955 -9.07814823 -0.94368915 0 0 Z " fill="#FFFFFF" transform="translate(217.125,93.8125)"/>
<path d="M0 0 C1.28068359 -0.00386719 2.56136719 -0.00773437 3.88085938 -0.01171875 C14.29321126 -0.00111014 24.03098057 0.22731954 34.0625 3.125 C36.6377043 3.63809326 39.2023632 4.11989452 41.7890625 4.5625 C43.24740981 4.82023345 44.70574272 5.07804836 46.1640625 5.3359375 C48.43263912 5.73256933 50.70150856 6.12742663 52.97070312 6.52050781 C55.18182113 6.90492565 57.39170722 7.29589836 59.6015625 7.6875 C60.27563141 7.802146 60.94970032 7.91679199 61.64419556 8.03491211 C65.35577134 8.69560226 68.58105392 9.71957667 72.0625 11.125 C74.47539469 11.67485212 76.90046285 12.1725156 79.33203125 12.6328125 C80.01303391 12.76315887 80.69403656 12.89350525 81.39567566 13.02780151 C83.55458595 13.43991246 85.71473524 13.84505569 87.875 14.25 C89.3457907 14.52948748 90.81649487 14.80943066 92.28710938 15.08984375 C95.87792025 15.77350508 99.46987531 16.45092709 103.0625 17.125 C103.0625 17.785 103.0625 18.445 103.0625 19.125 C103.63645508 19.16890869 104.21041016 19.21281738 104.80175781 19.25805664 C111.91648775 19.87774031 118.82020397 21.13320469 125.8125 22.5625 C126.90949219 22.77970703 128.00648438 22.99691406 129.13671875 23.22070312 C137.29921626 24.86804353 137.29921626 24.86804353 140.98583984 26.10913086 C144.29926648 27.2031769 147.5734074 27.9369546 150.9921875 28.6328125 C152.28125 28.89707031 153.5703125 29.16132812 154.8984375 29.43359375 C156.24477542 29.70580952 157.5911298 29.97794394 158.9375 30.25 C160.30736074 30.5296097 161.67715315 30.80955444 163.046875 31.08984375 C166.38475989 31.77152447 169.72330084 32.44979195 173.0625 33.125 C173.0625 33.785 173.0625 34.445 173.0625 35.125 C174.77953125 35.29322266 174.77953125 35.29322266 176.53125 35.46484375 C181.06677203 36.031784 185.23361004 37.25656138 189.5625 38.6875 C190.28953125 38.92146484 191.0165625 39.15542969 191.765625 39.39648438 C193.53330261 39.96632781 195.29820969 40.54475404 197.0625 41.125 C197.0625 41.785 197.0625 42.445 197.0625 43.125 C198.320625 43.475625 199.57875 43.82625 200.875 44.1875 C206.89865987 46.18271857 211.83742488 49.59827745 217.0625 53.125 C218.17625 53.805625 219.29 54.48625 220.4375 55.1875 C223.55083124 57.48543497 225.65720228 60.10295928 228.0625 63.125 C228.84753906 63.8984375 229.63257813 64.671875 230.44140625 65.46875 C241.39573492 76.57000707 248.79922243 89.6795861 253.01953125 104.55859375 C253.9573392 108.00237404 253.9573392 108.00237404 255.13671875 110.72265625 C257.73735014 117.47113011 257.24599497 124.76207064 257.25 131.875 C257.26224609 133.00421875 257.27449219 134.1334375 257.28710938 135.296875 C257.29901156 142.15253093 256.72843411 148.46881454 255.0625 155.125 C254.4025 155.125 253.7425 155.125 253.0625 155.125 C252.94132812 155.83269531 252.82015625 156.54039062 252.6953125 157.26953125 C249.67204724 170.9115492 240.98611056 182.58659429 231.0625 192.125 C228.79296875 193.40625 228.79296875 193.40625 227.0625 194.125 C227.0625 194.785 227.0625 195.445 227.0625 196.125 C213.72543125 204.1796904 203.52574922 208.27755438 187.375 205.6953125 C181.03463722 203.91208547 175.3875562 199.81198232 171.85546875 194.2109375 C170.07211783 189.51975823 170.69876964 184.17098326 171.5625 179.3125 C174.61838119 174.8560066 179.57102417 172.82999689 184.3515625 170.5703125 C194.91896989 165.57439223 205.32668445 159.34567201 209.921875 148.00390625 C211.57154531 143.38949826 212.45644523 138.97343814 213.0625 134.125 C213.3925 133.795 213.7225 133.465 214.0625 133.125 C214.37225338 129.61446165 213.80059437 126.67343732 212.74609375 123.328125 C212.21669924 121.62196213 211.73989736 119.8994342 211.28515625 118.171875 C206.98382763 102.59109665 198.75278282 92.91333837 184.79663086 84.90698242 C173.96776147 79.09150397 162.07125963 77.1705803 150.0625 75.125 C150.0625 74.465 150.0625 73.805 150.0625 73.125 C149.0209375 73.01285156 147.979375 72.90070313 146.90625 72.78515625 C140.73837429 72.01417179 134.65922945 70.75839693 128.5625 69.5625 C126.75652344 69.21155273 126.75652344 69.21155273 124.9140625 68.85351562 C121.96307163 68.27971185 119.01257754 67.70347782 116.0625 67.125 C116.0625 66.465 116.0625 65.805 116.0625 65.125 C114.22171875 64.95097656 114.22171875 64.95097656 112.34375 64.7734375 C106.34897117 64.10500559 100.47248184 62.93907419 94.5625 61.75 C93.48613281 61.54117188 92.40976562 61.33234375 91.30078125 61.1171875 C86.63370509 60.18490919 82.09630792 59.22129626 77.609375 57.62109375 C71.82750066 55.58012359 65.83382235 54.63967787 59.8125 53.5625 C57.51476835 53.14926652 55.21785208 52.73146713 52.921875 52.30859375 C51.91608398 52.12868896 50.91029297 51.94878418 49.87402344 51.76342773 C47.10441728 51.13451838 44.69044328 50.18569165 42.0625 49.125 C40.36187671 48.73225516 38.64929744 48.38869107 36.9296875 48.08984375 C35.47175781 47.83557617 35.47175781 47.83557617 33.984375 47.57617188 C32.47617187 47.3219043 32.47617187 47.3219043 30.9375 47.0625 C29.46410156 46.80243164 29.46410156 46.80243164 27.9609375 46.53710938 C2.0428738 42.08670502 -23.23922899 44.25835283 -48.9375 49.125 C-48.9375 49.785 -48.9375 50.445 -48.9375 51.125 C-49.93007812 51.4653125 -50.92265625 51.805625 -51.9453125 52.15625 C-63.58665098 56.2649577 -74.34185471 61.18863432 -83.9375 69.125 C-84.69289063 69.70378906 -85.44828125 70.28257813 -86.2265625 70.87890625 C-104.71605558 85.19434989 -116.3887814 102.00234714 -120.9375 125.125 C-121.5975 125.125 -122.2575 125.125 -122.9375 125.125 C-123.39351474 139.12816045 -123.34968363 151.73938886 -118.9375 165.125 C-118.5559375 166.30320313 -118.174375 167.48140625 -117.78125 168.6953125 C-117.09812336 170.75933085 -116.39780488 172.81783161 -115.671875 174.8671875 C-114.9375 177.125 -114.9375 177.125 -114.9375 179.125 C-114.2775 179.455 -113.6175 179.785 -112.9375 180.125 C-111.94271124 181.68568656 -110.99217175 183.27466952 -110.0625 184.875 C-100.97757683 199.36941062 -88.53418373 210.08788457 -72.9375 217.125 C-72.9375 217.785 -72.9375 218.445 -72.9375 219.125 C-72.02871094 219.39763672 -72.02871094 219.39763672 -71.1015625 219.67578125 C-69.33311817 220.20631455 -67.56490642 220.73762349 -65.796875 221.26953125 C-63.97568411 221.81439574 -62.15291524 222.35403298 -60.328125 222.88671875 C-59.49796875 223.13035156 -58.6678125 223.37398437 -57.8125 223.625 C-57.06742187 223.8415625 -56.32234375 224.058125 -55.5546875 224.28125 C-53.45130569 224.95935518 -51.38203308 225.74280991 -49.328125 226.55859375 C-44.27826844 228.47373026 -39.08394568 229.55993706 -33.8125 230.6875 C-31.89260199 231.10257835 -29.9733098 231.52047055 -28.0546875 231.94140625 C-27.21534668 232.12131104 -26.37600586 232.30121582 -25.51123047 232.48657227 C-22.9375 233.125 -22.9375 233.125 -20.00976562 234.10473633 C-16.91396243 235.13281655 -13.84387088 235.90869772 -10.6640625 236.6328125 C-8.93349609 237.02919922 -8.93349609 237.02919922 -7.16796875 237.43359375 C-5.97816406 237.70300781 -4.78835937 237.97242188 -3.5625 238.25 C-2.34949219 238.52714844 -1.13648438 238.80429687 0.11328125 239.08984375 C3.09576025 239.77088226 6.07883555 240.44917743 9.0625 241.125 C9.0625 241.785 9.0625 242.445 9.0625 243.125 C10.30902344 243.23714844 11.55554688 243.34929687 12.83984375 243.46484375 C18.54103013 244.0983089 24.04874645 245.37001322 29.625 246.6875 C30.63369141 246.92146484 31.64238281 247.15542969 32.68164062 247.39648438 C35.14303217 247.96808715 37.60323347 248.5443354 40.0625 249.125 C40.0625 249.785 40.0625 250.445 40.0625 251.125 C40.65313232 251.16890869 41.24376465 251.21281738 41.85229492 251.25805664 C48.51224954 251.82902125 54.87285386 253.03807339 61.375 254.5625 C62.33728516 254.77970703 63.29957031 254.99691406 64.29101562 255.22070312 C71.4255031 256.86484453 71.4255031 256.86484453 74.47216797 258.10913086 C77.43613175 259.27152985 80.3465995 259.9547089 83.45703125 260.6328125 C84.65908203 260.89707031 85.86113281 261.16132813 87.09960938 261.43359375 C88.96842773 261.83771484 88.96842773 261.83771484 90.875 262.25 C92.14021484 262.52714844 93.40542969 262.80429687 94.70898438 263.08984375 C97.82600795 263.77206023 100.94384213 264.45030105 104.0625 265.125 C104.0625 265.785 104.0625 266.445 104.0625 267.125 C105.21363281 267.24101562 106.36476563 267.35703125 107.55078125 267.4765625 C111.95740645 268.02969537 116.03065842 269.14335046 120.25 270.5 C120.93513672 270.70882813 121.62027344 270.91765625 122.32617188 271.1328125 C126.26726217 272.37696805 129.60063952 273.88393189 133.0625 276.125 C134.56061322 276.92023134 136.060564 277.71201245 137.5625 278.5 C141.36845482 280.60113869 144.09528288 282.91719771 147.0625 286.125 C148.073125 286.929375 149.08375 287.73375 150.125 288.5625 C153.13640135 291.18946714 154.94297145 293.7629892 157.0625 297.125 C157.53429687 297.57359375 158.00609375 298.0221875 158.4921875 298.484375 C161.88626541 302.03042655 163.83735584 306.79151716 166.0625 311.125 C166.46082031 311.89585937 166.85914063 312.66671875 167.26953125 313.4609375 C174.65841372 328.79217679 174.12376789 349.12860746 169.0625 365.125 C168.56169922 366.73568359 168.56169922 366.73568359 168.05078125 368.37890625 C167.02755564 371.22209836 166.17870246 372.09344564 164.0625 374.125 C163.6190625 375.03636719 163.175625 375.94773437 162.71875 376.88671875 C157.65833715 386.78078066 147.80883578 398.44761914 137.0625 402.125 C137.0625 402.785 137.0625 403.445 137.0625 404.125 C134.96078133 404.9644882 132.85603375 405.79639656 130.75 406.625 C129.57824219 407.0890625 128.40648437 407.553125 127.19921875 408.03125 C124.0625 409.125 124.0625 409.125 121.0625 409.125 C121.0625 409.785 121.0625 410.445 121.0625 411.125 C100.96462264 416.78068408 79.33079676 415.00763838 59.0625 411.125 C59.0625 410.465 59.0625 409.805 59.0625 409.125 C57.8353125 409.00898438 56.608125 408.89296875 55.34375 408.7734375 C49.34897117 408.10500559 43.47248184 406.93907419 37.5625 405.75 C36.48613281 405.54117187 35.40976563 405.33234375 34.30078125 405.1171875 C29.62096953 404.18236518 25.0687913 403.21245243 20.56640625 401.6171875 C13.97742628 399.29140155 7.0668414 398.28199396 0.21289062 397.01953125 C-5.05398608 396.01540297 -9.91542504 394.8785469 -14.87915039 392.86132812 C-19.2418266 391.30067916 -23.84210628 390.54043782 -28.375 389.625 C-39.40352985 387.38899983 -39.40352985 387.38899983 -44.375 385.63671875 C-49.95977528 383.68007321 -55.70623679 382.59345878 -61.5 381.4375 C-62.60408203 381.21255859 -63.70816406 380.98761719 -64.84570312 380.75585938 C-67.54200259 380.20726165 -70.23922088 379.66376055 -72.9375 379.125 C-72.9375 378.465 -72.9375 377.805 -72.9375 377.125 C-73.52917969 376.95484375 -74.12085938 376.7846875 -74.73046875 376.609375 C-82.76733123 374.14456236 -88.10844977 370.02572737 -92.9375 363.125 C-95.6292279 356.51803152 -95.97105049 349.60184752 -93.75 342.8125 C-91.60566053 337.80904124 -88.15039622 335.52863242 -83.3125 333.3125 C-73.13444861 329.88211972 -57.34287607 334.07091338 -47.57373047 338.09985352 C-44.64505026 339.23872444 -41.79195922 339.90909696 -38.71875 340.5625 C-36.94951172 340.94535156 -36.94951172 340.94535156 -35.14453125 341.3359375 C-33.30955078 341.72652344 -33.30955078 341.72652344 -31.4375 342.125 C-29.00955503 342.64180178 -26.58243326 343.16248985 -24.15625 343.6875 C-22.5465332 344.02974609 -22.5465332 344.02974609 -20.90429688 344.37890625 C-17.9375 345.125 -17.9375 345.125 -15.4621582 346.12060547 C-12.45334859 347.31761183 -9.49293605 347.96723718 -6.32421875 348.6328125 C-5.07705078 348.89707031 -3.82988281 349.16132813 -2.54492188 349.43359375 C-1.23830158 349.70582679 0.0683393 349.97796097 1.375 350.25 C2.7012587 350.52953627 4.02743158 350.80948011 5.35351562 351.08984375 C8.58902227 351.77224152 11.82534482 352.45047369 15.0625 353.125 C15.0625 353.785 15.0625 354.445 15.0625 355.125 C16.28839844 355.23714844 17.51429688 355.34929687 18.77734375 355.46484375 C24.81087124 356.13523569 30.69524029 357.41147576 36.625 358.6875 C37.72908203 358.92146484 38.83316406 359.15542969 39.97070312 359.39648438 C42.66881255 359.96881062 45.36601875 360.54506002 48.0625 361.125 C48.0625 361.785 48.0625 362.445 48.0625 363.125 C49.29742187 363.23972656 50.53234375 363.35445313 51.8046875 363.47265625 C57.67910622 364.1267745 63.41087914 365.3318286 69.1875 366.5625 C70.23292969 366.77970703 71.27835938 366.99691406 72.35546875 367.22070312 C76.5171247 368.09670277 80.5719 368.96613392 84.62109375 370.27734375 C89.44015104 371.46433062 94.05946377 371.33780174 99 371.25 C100.4550293 371.23646484 100.4550293 371.23646484 101.93945312 371.22265625 C104.31406407 371.19926107 106.68814776 371.16648176 109.0625 371.125 C109.0625 370.465 109.0625 369.805 109.0625 369.125 C109.71476562 368.86847656 110.36703125 368.61195313 111.0390625 368.34765625 C117.32956382 365.59208266 120.53737935 362.92121791 123.90625 356.91796875 C124.2878125 356.32628906 124.669375 355.73460937 125.0625 355.125 C125.7225 355.125 126.3825 355.125 127.0625 355.125 C128.51982075 346.92757077 128.83889913 338.296436 127.0625 330.125 C126.4025 329.795 125.7425 329.465 125.0625 329.125 C124.18055653 327.72545691 123.33117209 326.30527903 122.5 324.875 C119.24911339 319.81716897 115.48277524 317.52196616 110.0625 315.125 C110.0625 314.465 110.0625 313.805 110.0625 313.125 C107.27113741 312.4986158 104.4794624 311.87370122 101.6875 311.25 C100.8620166 311.0651001 100.0365332 310.8802002 99.18603516 310.68969727 C94.27310269 309.59551909 89.36126191 308.5609958 84.3984375 307.71484375 C82.0625 307.125 82.0625 307.125 78.5390625 305.72265625 C73.19720114 303.67053156 67.66713787 302.70014712 62.0625 301.625 C55.87971981 300.43894687 50.01791659 299.23464973 44.17578125 296.87451172 C39.60637024 295.25389113 34.80161925 294.41913234 30.0625 293.4375 C29.00160156 293.21255859 27.94070312 292.98761719 26.84765625 292.75585938 C24.25371838 292.20669235 21.65872751 291.66321892 19.0625 291.125 C19.0625 290.465 19.0625 289.805 19.0625 289.125 C17.45375 288.95097656 17.45375 288.95097656 15.8125 288.7734375 C10.16951911 288.06558118 4.62768614 286.90711791 -0.9375 285.75 C-1.9790625 285.54117187 -3.020625 285.33234375 -4.09375 285.1171875 C-9.21533217 284.05665786 -13.97721114 282.8194572 -18.82421875 280.87011719 C-23.39637443 279.25803087 -28.19841894 278.41912442 -32.9375 277.4375 C-33.99839844 277.21255859 -35.05929688 276.98761719 -36.15234375 276.75585938 C-38.74628162 276.20669235 -41.34127249 275.66321892 -43.9375 275.125 C-43.9375 274.465 -43.9375 273.805 -43.9375 273.125 C-45.62359375 272.94904297 -45.62359375 272.94904297 -47.34375 272.76953125 C-52.15121159 272.16542461 -56.75802243 271.04809239 -61.4375 269.8125 C-62.64212891 269.51182617 -62.64212891 269.51182617 -63.87109375 269.20507812 C-68.61245626 267.96402457 -72.78099531 266.35380056 -77.11132812 264.0637207 C-79.64129828 262.76322134 -82.25532746 261.81376039 -84.9375 260.875 C-86.360625 260.37226562 -86.360625 260.37226562 -87.8125 259.859375 C-88.51375 259.61703125 -89.215 259.3746875 -89.9375 259.125 C-89.9375 258.465 -89.9375 257.805 -89.9375 257.125 C-90.618125 256.856875 -91.29875 256.58875 -92 256.3125 C-95.33460809 254.96446694 -98.63493237 253.54963702 -101.9375 252.125 C-101.9375 251.465 -101.9375 250.805 -101.9375 250.125 C-102.9584375 249.7846875 -102.9584375 249.7846875 -104 249.4375 C-109.9708517 246.76967265 -114.39677907 242.77647022 -118.9375 238.125 C-120.18212864 237.05621293 -121.43268866 235.99431349 -122.6875 234.9375 C-140.68897915 219.30909719 -155.33913149 197.39058171 -160.9375 174.125 C-160.9375 173.135 -160.9375 172.145 -160.9375 171.125 C-161.5975 171.125 -162.2575 171.125 -162.9375 171.125 C-163.25677064 169.66813397 -163.56740834 168.20937649 -163.875 166.75 C-164.13603516 165.53183594 -164.13603516 165.53183594 -164.40234375 164.2890625 C-169.8283527 132.20827967 -164.06665201 100.82895394 -146.9375 73.125 C-145.33203125 71.38671875 -145.33203125 71.38671875 -143.9375 70.125 C-143.08609881 68.99252727 -142.25416514 67.84527222 -141.4375 66.6875 C-128.69664841 49.4442422 -112.43244058 35.7757829 -93.9375 25.125 C-93.29248535 24.74408203 -92.6474707 24.36316406 -91.98291016 23.97070312 C-83.01218678 18.68398397 -74.36658541 14.14183612 -64.3671875 11.16015625 C-61.85654537 10.40238841 -59.49878866 9.58602317 -57.06640625 8.6328125 C-52.78763244 7.00204426 -48.46620814 5.92274935 -44 4.9375 C-43.25298828 4.76025391 -42.50597656 4.58300781 -41.73632812 4.40039062 C-36.36905767 3.20097471 -31.43549934 2.96666635 -25.9375 3.125 C-25.9375 2.465 -25.9375 1.805 -25.9375 1.125 C-17.27972089 0.13842893 -8.70796942 -0.02621566 0 0 Z " fill="#FFFFFF" transform="translate(208.9375,29.875)"/>
<path d="" fill="#FFFFFF" transform="translate(0,0)"/>
<path d="" fill="#FFFFFF" transform="translate(0,0)"/>
<path d="" fill="#FFFFFF" transform="translate(0,0)"/>
<path d="" fill="#FFFFFF" transform="translate(0,0)"/>
<path d="" fill="#FFFFFF" transform="translate(0,0)"/>
<path d="" fill="#FFFFFF" transform="translate(0,0)"/>
<path d="" fill="#FFFFFF" transform="translate(0,0)"/>
<path d="" fill="#FFFFFF" transform="translate(0,0)"/>
<path d="" fill="#FFFFFF" transform="translate(0,0)"/>
</svg>
